<svg xmlns="http://www.w3.org/2000/svg" viewBox="0 0 512 512">
  <defs>
    <linearGradient id="bg" x1="0" y1="0" x2="1" y2="1">
      <stop offset="0" stop-color="#2c3e94"/>
      <stop offset="1" stop-color="#3e63dd"/>
    </linearGradient>
  </defs>
  <rect width="512" height="512" rx="96" fill="url(#bg)"/>
  <!-- MG 字标(MasterGo 侧) -->
  <text x="118" y="286" font-family="ui-monospace, 'JetBrains Mono', Menlo, monospace" font-size="118" font-weight="700" fill="#ffffff" text-anchor="middle">MG</text>
  <!-- 箭头(Phosphor arrow-right) -->
  <g transform="translate(208 208) scale(0.375)" fill="#aebefa">
    <path d="M221.66,133.66l-72,72a8,8,0,0,1-11.32-11.32L196.69,136H40a8,8,0,0,1,0-16H196.69L138.34,61.66a8,8,0,0,1,11.32-11.32l72,72A8,8,0,0,1,221.66,133.66Z"/>
  </g>
  <!-- Figma logo(Phosphor figma-logo) -->
  <g transform="translate(296 176) scale(0.625)" fill="#ffffff">
    <path d="M192,96a40,40,0,0,0-24-72H96A40,40,0,0,0,72,96a40,40,0,0,0,1.37,65A44,44,0,1,0,144,196V160a40,40,0,1,0,48-64Zm0-32a24,24,0,0,1-24,24H144V40h24A24,24,0,0,1,192,64ZM72,64A24,24,0,0,1,96,40h32V88H96A24,24,0,0,1,72,64Zm24,88a24,24,0,0,1,0-48h32v48H96Zm32,44a28,28,0,1,1-28-28h28Zm40-44a24,24,0,1,1,24-24A24,24,0,0,1,168,152Z"/>
  </g>
</svg>
